# xmcd CD database file
#
# Track frame offsets:
#	150
#	14003
#	29123
#	42947
#	54762
#	67242
#	80868
#	93958
#	106984
#	120530
#	134332
#	147889
#	160457
#	174910
#	189153
#
# Disc length: 2733 seconds
#
# Revision: 1
# Processed by: cddbd v1.5.1PL0 Copyright (c) Steve Scherf et al.
# Submitted via: CDex 1.50
#
DISCID=d00aab0f
DTITLE=Various Artist - Total Jazz-CD 2
DYEAR=2000
DGENRE=Jazz
TTITLE0=Body and Soul
TTITLE1=Moonlight Serenade
TTITLE2=You've Got to Keep Me
TTITLE3=It don't Mean a Thing
TTITLE4=Vibraphone Blues
TTITLE5=Ornlthology
TTITLE6=Maple Leaf Rag
TTITLE7=Take the a Train
TTITLE8=I Wish I Had You
TTITLE9=The Scat Song
TTITLE10=Nuages
TTITLE11=Sweet Sue
TTITLE12=Gone with "What" Wind
TTITLE13=See See Blues
TTITLE14=Blues Bikini
EXTD=YEAR: 2000
EXTT0=
EXTT1=
EXTT2=
EXTT3=
EXTT4=
EXTT5=
EXTT6=
EXTT7=
EXTT8=
EXTT9=
EXTT10=
EXTT11=
EXTT12=
EXTT13=
EXTT14=
PLAYORDER=
